<svg xmlns="http://www.w3.org/2000/svg" viewBox="0 0 1200 800" role="img" aria-label="Abstract AI readiness and assessment illustration"><defs><linearGradient id="bg" x1="0" y1="0" x2="1" y2="1"><stop stop-color="#fbfaf7"/><stop offset="1" stop-color="#f2ede5"/></linearGradient><filter id="s" x="-20%" y="-20%" width="140%" height="140%"><feDropShadow dx="0" dy="14" stdDeviation="18" flood-color="#8e7b60" flood-opacity=".12"/></filter></defs><rect width="1200" height="800" rx="34" fill="url(#bg)"/><g filter="url(#s)"><rect x="108" y="126" width="446" height="522" rx="30" fill="#fff" stroke="#e8e1d6"/><rect x="146" y="170" width="176" height="18" rx="9" fill="#d8c7ab"/><rect x="146" y="214" width="332" height="12" rx="6" fill="#e8e1d6"/><g fill="none" stroke="#8e7b60" stroke-width="5"><rect x="147" y="268" width="29" height="29" rx="5"/><rect x="147" y="337" width="29" height="29" rx="5"/><rect x="147" y="406" width="29" height="29" rx="5"/><rect x="147" y="475" width="29" height="29" rx="5"/></g><path d="M153 281l8 8 16-20M153 350l8 8 16-20M153 419l8 8 16-20" fill="none" stroke="#141414" stroke-width="5" stroke-linecap="round" stroke-linejoin="round"/><g fill="#e8e1d6"><rect x="200" y="274" width="280" height="11" rx="5"/><rect x="200" y="343" width="240" height="11" rx="5"/><rect x="200" y="412" width="260" height="11" rx="5"/><rect x="200" y="481" width="210" height="11" rx="5"/></g><rect x="146" y="550" width="102" height="43" rx="21" fill="#f7f4ef"/><rect x="263" y="550" width="102" height="43" rx="21" fill="#f7f4ef"/><rect x="380" y="550" width="102" height="43" rx="21" fill="#f7f4ef"/></g><g filter="url(#s)"><circle cx="765" cy="365" r="139" fill="#fff" stroke="#d8c7ab" stroke-width="18"/><circle cx="765" cy="365" r="98" fill="none" stroke="#e8e1d6" stroke-width="24"/><path d="M694 425a98 98 0 0 1 145-122" fill="none" stroke="#8e7b60" stroke-width="24" stroke-linecap="round"/><path d="M726 365l31 31 63-81" fill="none" stroke="#141414" stroke-width="18" stroke-linecap="round" stroke-linejoin="round"/><rect x="855" y="466" width="45" height="195" rx="22" fill="#141414" transform="rotate(-43 855 466)"/></g><g filter="url(#s)"><rect x="873" y="151" width="220" height="151" rx="24" fill="#fff" stroke="#e8e1d6"/><path d="M919 251a59 59 0 0 1 118-1" fill="none" stroke="#e8e1d6" stroke-width="17" stroke-linecap="round"/><path d="M919 251a59 59 0 0 1 76-56" fill="none" stroke="#d8c7ab" stroke-width="17" stroke-linecap="round"/><line x1="978" y1="251" x2="1012" y2="211" stroke="#141414" stroke-width="8" stroke-linecap="round"/><circle cx="978" cy="251" r="9" fill="#141414"/><rect x="900" y="521" width="222" height="121" rx="24" fill="#fff" stroke="#e8e1d6"/><circle cx="938" cy="559" r="14" fill="#141414"/><path d="M931 559l5 5 10-12" fill="none" stroke="#fff" stroke-width="4" stroke-linecap="round"/><rect x="971" y="553" width="113" height="11" rx="5" fill="#d8c7ab"/><circle cx="938" cy="603" r="14" fill="#141414"/><path d="M931 603l5 5 10-12" fill="none" stroke="#fff" stroke-width="4" stroke-linecap="round"/><rect x="971" y="597" width="89" height="11" rx="5" fill="#e8e1d6"/></g></svg>